<svg class="main-svg" xmlns="http://www.w3.org/2000/svg" xmlns:xlink="http://www.w3.org/1999/xlink" width="2100" height="1580" style="" viewBox="0 0 2100 1580"><rect x="0" y="0" width="2100" height="1580" style="fill: rgb(255, 255, 255); fill-opacity: 1;"/><defs id="defs-f13411"><g class="clips"><clipPath id="clipf13411xyplot" class="plotclip"><rect width="1748" height="900"/></clipPath><clipPath class="axesclip" id="clipf13411x"><rect x="280" y="0" width="1748" height="1580"/></clipPath><clipPath class="axesclip" id="clipf13411y"><rect x="0" y="270" width="2100" height="900"/></clipPath><clipPath class="axesclip" id="clipf13411xy"><rect x="280" y="270" width="1748" height="900"/></clipPath></g><g class="gradients"/><g class="patterns"/></defs><g class="bglayer"/><g class="layer-below"><g class="imagelayer"/><g class="shapelayer"/></g><g class="cartesianlayer"><g class="subplot xy"><g class="layer-subplot"><g class="shapelayer"/><g class="imagelayer"/></g><g class="minor-gridlayer"><g class="x"/><g class="y"/></g><g class="gridlayer"><g class="x"/><g class="y"><path class="ygrid crisp" transform="translate(0,990)" d="M280,0h1748" style="stroke: rgb(230, 230, 230); stroke-opacity: 1; stroke-width: 1px;"/><path class="ygrid crisp" transform="translate(0,810)" d="M280,0h1748" style="stroke: rgb(230, 230, 230); stroke-opacity: 1; stroke-width: 1px;"/><path class="ygrid crisp" transform="translate(0,630)" d="M280,0h1748" style="stroke: rgb(230, 230, 230); stroke-opacity: 1; stroke-width: 1px;"/><path class="ygrid crisp" transform="translate(0,450)" d="M280,0h1748" style="stroke: rgb(230, 230, 230); stroke-opacity: 1; stroke-width: 1px;"/></g></g><g class="zerolinelayer"/><g class="layer-between"><g class="shapelayer"/><g class="imagelayer"/></g><path class="xlines-below"/><path class="ylines-below"/><g class="overlines-below"/><g class="xaxislayer-below"/><g class="yaxislayer-below"/><g class="overaxes-below"/><g class="overplot"><g class="xy" transform="translate(280,270)" clip-path="url(#clipf13411xyplot)"><g class="scatterlayer mlayer"><g class="trace scatter tracefda5a7" style="stroke-miterlimit: 2; opacity: 1;"><g class="fills"/><g class="errorbars"/><g class="lines"><path class="js-line" d="M0,787.6L13.98,765.63L27.97,710.57L69.92,701.01L83.9,808.72L97.89,836.14L111.87,850.93L125.86,855.12L167.81,848.37L181.79,847.19L195.78,836.05L209.76,830.56L223.74,832.58L265.7,825.46L279.68,818.89L293.66,837.09L307.65,846.14L321.63,841.56L363.58,840.31L377.57,832.5L391.55,821.85L405.54,819.93L419.52,797.09L461.47,767.02L475.46,741.47L489.44,723.64L503.42,814.74L517.41,824.88L559.36,860.92L587.33,850.86L601.31,847.78L657.25,832.66L671.23,831.9L685.22,837.17L699.2,834.04L713.18,841.78L755.14,839.23L769.12,844.15L783.1,836.43L797.09,829.79L811.07,827.64L853.02,814.05L867.01,792.58L880.99,792.76L894.98,778.11L908.96,741.63L950.91,769.71L964.9,845.21L978.88,854L992.86,848.69L1006.85,847.01L1048.8,846.82L1062.78,842.97L1076.77,835.78L1090.75,832.49L1146.69,835.31L1160.67,834.46L1174.66,837.58L1188.64,837.65L1202.62,837.92L1244.58,833.75L1272.54,822.63L1286.53,800.28L1342.46,692.82L1356.45,764.31L1370.43,810.47L1384.42,842.48L1398.4,856.3L1440.35,855.99L1468.32,845.37L1482.3,843.24L1496.29,839.56L1538.24,838.81L1552.22,840.63L1566.21,839.03L1580.19,836.64L1594.18,836.33L1650.11,836.68L1664.1,828.45L1678.08,821.63L1692.06,810.95L1734.02,792.31L1748,759.14" style="vector-effect: none; fill: none; stroke: rgb(213, 94, 0); stroke-opacity: 1; stroke-width: 8px; opacity: 1;"/></g><g class="points"/><g class="text"/></g><g class="trace scatter trace3887d5" style="stroke-miterlimit: 2; opacity: 1;"><g class="fills"/><g class="errorbars"/><g class="lines"><path class="js-line" d="M0,811.66L13.98,768.84L27.97,829.09L69.92,823.52L83.9,738.21L97.89,830.11L111.87,860.76L125.86,796.2L167.81,829.03L181.79,786.45L195.78,834.49L209.76,851.21L223.74,813.13L265.7,681.58L279.68,799.08L293.66,786.58L307.65,637.86L321.63,791.69L363.58,692.57L377.57,792.52L391.55,768.12L405.54,819.34L419.52,832.23L461.47,866.72L475.46,860.62L489.44,874.99L503.42,854.76L517.41,839.12L559.36,796.82L573.34,860.33L587.33,845.34L615.3,827.34L657.25,832.75L671.23,844.49L685.22,800.44L699.2,830.72L713.18,812.3L755.14,774.96L769.12,784.99L783.1,797.34L797.09,784.59L811.07,797.55L853.02,772.02L867.01,767.37L880.99,599.5L894.98,712.13L908.96,684.76L950.91,813.12L964.9,829.39L978.88,833.5L992.86,839.93L1006.85,843.56L1048.8,849.54L1062.78,833.27L1076.77,772.59L1090.75,825.21L1104.74,835.28L1146.69,812.89L1160.67,835.87L1188.64,832.17L1202.62,827.81L1244.58,840.06L1258.56,771.51L1272.54,777.34L1286.53,666.37L1300.51,676.32L1342.46,883.49L1356.45,837.16L1370.43,845.76L1384.42,835.43L1398.4,839.68L1440.35,784.36L1454.34,818.86L1468.32,834.1L1482.3,803.3L1496.29,825.29L1538.24,824.99L1552.22,844.84L1566.21,838.41L1580.19,779.61L1594.18,836.02L1636.13,822.72L1650.11,814.35L1664.1,802.21L1678.08,699.34L1692.06,787.6L1734.02,780.93L1748,741.64" style="vector-effect: none; fill: none; stroke: rgb(0, 114, 178); stroke-opacity: 1; stroke-dasharray: 21px, 21px; stroke-width: 7px; opacity: 1;"/></g><g class="points"/><g class="text"/></g><g class="trace scatter trace0739e0" style="stroke-miterlimit: 2; opacity: 1;"><g class="fills"/><g class="errorbars"/><g class="lines"><path class="js-line" d="M0,788.17L13.98,689.59L27.97,357.89L69.92,830.45L83.9,848.94L97.89,845.54L111.87,804.68L125.86,850.15L167.81,803.5L181.79,842.07L195.78,840.11L223.74,745.98L265.7,804.55L279.68,778.48L293.66,695.05L307.65,793.05L321.63,767.05L363.58,718.43L377.57,670.89L391.55,877.7L405.54,900L419.52,672.04L461.47,658.09L475.46,543.88L489.44,882.25L503.42,900L517.41,778.8L559.36,827.69L573.34,839.21L587.33,833.65L601.31,836L615.3,844.55L657.25,815.79L671.23,844.65L685.22,840.48L699.2,818.26L713.18,782.87L755.14,826.82L769.12,831.83L783.1,826.47L797.09,832.38L811.07,783.07L853.02,785.9L867.01,657.85L880.99,757.58L894.98,709.8L908.96,235.63L950.91,841.95L964.9,840.17L978.88,853.97L992.86,857.87L1048.8,844.49L1062.78,775.68L1076.77,841.07L1090.75,847.5L1104.74,828.89L1146.69,900L1160.67,900L1174.66,836.1L1188.64,840.7L1202.62,851.31L1244.58,793.45L1258.56,790.72L1272.54,744.21L1286.53,728.57L1300.51,280.56L1342.46,859.03L1356.45,848.76L1370.43,849.06L1384.42,860.05L1398.4,804.15L1440.35,838L1454.34,834.45L1468.32,815.96L1482.3,840.54L1496.29,846.53L1538.24,848.57L1552.22,857.13L1566.21,795.65L1580.19,860.33L1594.18,832L1636.13,819.6L1650.11,830.39L1664.1,657.54L1678.08,827.98L1692.06,802.82L1734.02,736.32L1748,341.43" style="vector-effect: none; fill: none; stroke: rgb(17, 17, 17); stroke-opacity: 1; stroke-width: 10px; opacity: 1;"/></g><g class="points"/><g class="text"/></g></g></g></g><g class="zerolinelayer-above"/><path class="xlines-above crisp" d="M278.4,1170.8H2028" style="fill: none; stroke-width: 1.6px; stroke: rgb(34, 34, 34); stroke-opacity: 1;"/><path class="ylines-above crisp" d="M279.2,270V1170" style="fill: none; stroke-width: 1.6px; stroke: rgb(34, 34, 34); stroke-opacity: 1;"/><g class="overlines-above"/><g class="xaxislayer-above"><path class="xtick ticks crisp" d="M0,1171.6v5" transform="translate(349.92,0)" style="stroke: rgb(34, 34, 34); stroke-opacity: 1; stroke-width: 1px;"/><path class="xtick ticks crisp" d="M0,1171.6v5" transform="translate(783.4200000000001,0)" style="stroke: rgb(34, 34, 34); stroke-opacity: 1; stroke-width: 1px;"/><path class="xtick ticks crisp" d="M0,1171.6v5" transform="translate(1216.9299999999998,0)" style="stroke: rgb(34, 34, 34); stroke-opacity: 1; stroke-width: 1px;"/><path class="xtick ticks crisp" d="M0,1171.6v5" transform="translate(1608.48,0)" style="stroke: rgb(34, 34, 34); stroke-opacity: 1; stroke-width: 1px;"/><g class="xtick"><text text-anchor="middle" x="0" y="1227" transform="translate(349.92,0)" style="font-family: 'Liberation Sans', Arial, Helvetica, sans-serif; font-size: 42px; fill: rgb(34, 34, 34); fill-opacity: 1; white-space: pre;">01 Dec</text></g><g class="xtick"><text text-anchor="middle" x="0" y="1227" style="font-family: 'Liberation Sans', Arial, Helvetica, sans-serif; font-size: 42px; fill: rgb(34, 34, 34); fill-opacity: 1; white-space: pre;" transform="translate(783.4200000000001,0)">01 Jan</text></g><g class="xtick"><text text-anchor="middle" x="0" y="1227" style="font-family: 'Liberation Sans', Arial, Helvetica, sans-serif; font-size: 42px; fill: rgb(34, 34, 34); fill-opacity: 1; white-space: pre;" transform="translate(1216.9299999999998,0)">01 Feb</text></g><g class="xtick"><text text-anchor="middle" x="0" y="1227" style="font-family: 'Liberation Sans', Arial, Helvetica, sans-serif; font-size: 42px; fill: rgb(34, 34, 34); fill-opacity: 1; white-space: pre;" transform="translate(1608.48,0)">01 Mar</text></g></g><g class="yaxislayer-above"><path class="ytick ticks crisp" d="M278.4,0h-5" transform="translate(0,1170)" style="stroke: rgb(34, 34, 34); stroke-opacity: 1; stroke-width: 1px;"/><path class="ytick ticks crisp" d="M278.4,0h-5" transform="translate(0,990)" style="stroke: rgb(34, 34, 34); stroke-opacity: 1; stroke-width: 1px;"/><path class="ytick ticks crisp" d="M278.4,0h-5" transform="translate(0,810)" style="stroke: rgb(34, 34, 34); stroke-opacity: 1; stroke-width: 1px;"/><path class="ytick ticks crisp" d="M278.4,0h-5" transform="translate(0,630)" style="stroke: rgb(34, 34, 34); stroke-opacity: 1; stroke-width: 1px;"/><path class="ytick ticks crisp" d="M278.4,0h-5" transform="translate(0,450)" style="stroke: rgb(34, 34, 34); stroke-opacity: 1; stroke-width: 1px;"/><path class="ytick ticks crisp" d="M278.4,0h-5" transform="translate(0,270)" style="stroke: rgb(34, 34, 34); stroke-opacity: 1; stroke-width: 1px;"/><g class="ytick"><text text-anchor="end" x="265" y="14.7" transform="translate(0,1170)" style="font-family: 'Liberation Sans', Arial, Helvetica, sans-serif; font-size: 42px; fill: rgb(34, 34, 34); fill-opacity: 1; white-space: pre;">0</text></g><g class="ytick"><text text-anchor="end" x="265" y="14.7" style="font-family: 'Liberation Sans', Arial, Helvetica, sans-serif; font-size: 42px; fill: rgb(34, 34, 34); fill-opacity: 1; white-space: pre;" transform="translate(0,990)">50</text></g><g class="ytick"><text text-anchor="end" x="265" y="14.7" style="font-family: 'Liberation Sans', Arial, Helvetica, sans-serif; font-size: 42px; fill: rgb(34, 34, 34); fill-opacity: 1; white-space: pre;" transform="translate(0,810)">100</text></g><g class="ytick"><text text-anchor="end" x="265" y="14.7" style="font-family: 'Liberation Sans', Arial, Helvetica, sans-serif; font-size: 42px; fill: rgb(34, 34, 34); fill-opacity: 1; white-space: pre;" transform="translate(0,630)">150</text></g><g class="ytick"><text text-anchor="end" x="265" y="14.7" style="font-family: 'Liberation Sans', Arial, Helvetica, sans-serif; font-size: 42px; fill: rgb(34, 34, 34); fill-opacity: 1; white-space: pre;" transform="translate(0,450)">200</text></g><g class="ytick"><text text-anchor="end" x="265" y="14.7" style="font-family: 'Liberation Sans', Arial, Helvetica, sans-serif; font-size: 42px; fill: rgb(34, 34, 34); fill-opacity: 1; white-space: pre;" transform="translate(0,270)">250</text></g></g><g class="overaxes-above"/></g></g><g class="polarlayer"/><g class="smithlayer"/><g class="ternarylayer"/><g class="geolayer"/><g class="funnelarealayer"/><g class="pielayer"/><g class="iciclelayer"/><g class="treemaplayer"/><g class="sunburstlayer"/><g class="glimages"/><defs id="topdefs-f13411"><g class="clips"/><clipPath id="legendf13411"><rect width="1154" height="86" x="0" y="0"/></clipPath></defs><g class="layer-above"><g class="imagelayer"/><g class="shapelayer"/></g><g class="infolayer"><g class="legend" pointer-events="all" transform="translate(473,1410)"><rect class="bg" shape-rendering="crispEdges" style="stroke: rgb(68, 68, 68); stroke-opacity: 1; fill: rgb(255, 255, 255); fill-opacity: 0; stroke-width: 0px;" width="1154" height="86" x="0" y="0"/><g class="scrollbox" transform="" clip-path="url(#legendf13411)"><g class="groups"><g class="traces" transform="translate(0,42.9)" style="opacity: 1;"><text class="legendtext" text-anchor="start" x="130" y="21.84" style="font-family: 'Liberation Sans', Arial, Helvetica, sans-serif; font-size: 56px; fill: rgb(34, 34, 34); fill-opacity: 1; white-space: pre;">Actual</text><g class="layers" style="opacity: 1;"><g class="legendfill"/><g class="legendlines"><path class="js-line" d="M5,0h120" style="fill: none; stroke: rgb(17, 17, 17); stroke-opacity: 1; stroke-width: 17.5px;"/></g><g class="legendsymbols"><g class="legendpoints"/></g></g><rect class="legendtoggle" x="0" y="-37.9" width="384.56" height="75.8" style="fill: rgb(0, 0, 0); fill-opacity: 0;"/></g><g class="traces" transform="translate(384.56,42.9)" style="opacity: 1;"><text class="legendtext" text-anchor="start" x="130" y="21.84" style="font-family: 'Liberation Sans', Arial, Helvetica, sans-serif; font-size: 56px; fill: rgb(34, 34, 34); fill-opacity: 1; white-space: pre;">M9_TimesFM3</text><g class="layers" style="opacity: 1;"><g class="legendfill"/><g class="legendlines"><path class="js-line" d="M5,0h120" style="fill: none; stroke: rgb(213, 94, 0); stroke-opacity: 1; stroke-width: 17.5px;"/></g><g class="legendsymbols"><g class="legendpoints"/></g></g><rect class="legendtoggle" x="0" y="-37.9" width="384.56" height="75.8" style="fill: rgb(0, 0, 0); fill-opacity: 0;"/></g><g class="traces" transform="translate(769.12,42.9)" style="opacity: 1;"><text class="legendtext" text-anchor="start" x="130" y="21.84" style="font-family: 'Liberation Sans', Arial, Helvetica, sans-serif; font-size: 56px; fill: rgb(34, 34, 34); fill-opacity: 1; white-space: pre;">M3_HGB</text><g class="layers" style="opacity: 1;"><g class="legendfill"/><g class="legendlines"><path class="js-line" d="M5,0h120" style="fill: none; stroke: rgb(0, 114, 178); stroke-opacity: 1; stroke-dasharray: 15px, 15px; stroke-width: 17.5px;"/></g><g class="legendsymbols"><g class="legendpoints"/></g></g><rect class="legendtoggle" x="0" y="-37.9" width="384.56" height="75.8" style="fill: rgb(0, 0, 0); fill-opacity: 0;"/></g></g></g><rect class="scrollbar" rx="20" ry="3" width="0" height="0" style="fill: rgb(128, 139, 164); fill-opacity: 1;" x="0" y="0"/></g><g class="g-gtitle"><text class="gtitle" x="1050" y="96" text-anchor="middle" dy="0.7em" style="opacity: 1; font-family: 'Liberation Sans', Arial, Helvetica, sans-serif; font-size: 58px; fill: rgb(34, 34, 34); fill-opacity: 1; white-space: pre;"><tspan class="line" dy="0em" x="1050" y="96">Grain B (business days)</tspan><tspan class="line" dy="1.3em" x="1050" y="96"><tspan style="font-size:42px; fill:#444444">Black line: realized collection. Other lines: lowest test sMAPE.</tspan></tspan></text></g><g class="g-xtitle"><text class="xtitle" x="1154" y="1296.8" text-anchor="middle" style="opacity: 1; font-family: 'Liberation Sans', Arial, Helvetica, sans-serif; font-size: 48px; fill: rgb(34, 34, 34); fill-opacity: 1; white-space: pre;">Date</text></g><g class="g-ytitle"><text class="ytitle" transform="rotate(-90,150.921875,720)" x="150.921875" y="720" text-anchor="middle" style="opacity: 1; font-family: 'Liberation Sans', Arial, Helvetica, sans-serif; font-size: 48px; fill: rgb(34, 34, 34); fill-opacity: 1; white-space: pre;">BRL (millions)</text></g></g></svg>