<svg class="main-svg" xmlns="http://www.w3.org/2000/svg" xmlns:xlink="http://www.w3.org/1999/xlink" width="2100" height="1580" style="" viewBox="0 0 2100 1580"><rect x="0" y="0" width="2100" height="1580" style="fill: rgb(255, 255, 255); fill-opacity: 1;"/><defs id="defs-e946b0"><g class="clips"><clipPath id="clipe946b0xyplot" class="plotclip"><rect width="1748" height="970"/></clipPath><clipPath class="axesclip" id="clipe946b0x"><rect x="280" y="0" width="1748" height="1580"/></clipPath><clipPath class="axesclip" id="clipe946b0y"><rect x="0" y="270" width="2100" height="970"/></clipPath><clipPath class="axesclip" id="clipe946b0xy"><rect x="280" y="270" width="1748" height="970"/></clipPath></g><g class="gradients"/><g class="patterns"/></defs><g class="bglayer"/><g class="layer-below"><g class="imagelayer"/><g class="shapelayer"/></g><g class="cartesianlayer"><g class="subplot xy"><g class="layer-subplot"><g class="shapelayer"/><g class="imagelayer"/></g><g class="minor-gridlayer"><g class="x"/><g class="y"/></g><g class="gridlayer"><g class="x"/><g class="y"><path class="ygrid crisp" transform="translate(0,1046)" d="M280,0h1748" style="stroke: rgb(230, 230, 230); stroke-opacity: 1; stroke-width: 1px;"/><path class="ygrid crisp" transform="translate(0,852)" d="M280,0h1748" style="stroke: rgb(230, 230, 230); stroke-opacity: 1; stroke-width: 1px;"/><path class="ygrid crisp" transform="translate(0,658)" d="M280,0h1748" style="stroke: rgb(230, 230, 230); stroke-opacity: 1; stroke-width: 1px;"/><path class="ygrid crisp" transform="translate(0,464)" d="M280,0h1748" style="stroke: rgb(230, 230, 230); stroke-opacity: 1; stroke-width: 1px;"/></g></g><g class="zerolinelayer"/><g class="layer-between"><g class="shapelayer"/><g class="imagelayer"/></g><path class="xlines-below"/><path class="ylines-below"/><g class="overlines-below"/><g class="xaxislayer-below"/><g class="yaxislayer-below"/><g class="overaxes-below"/><g class="overplot"><g class="xy" transform="translate(280,270)" clip-path="url(#clipe946b0xyplot)"><g class="scatterlayer mlayer"><g class="trace scatter trace4a81d0" style="stroke-miterlimit: 2; opacity: 1;"><g class="fills"/><g class="errorbars"/><g class="lines"><path class="js-line" d="M0,848.86L13.98,825.18L27.97,765.83L69.92,755.53L83.9,871.62L97.89,901.18L111.87,917.12L125.86,921.63L167.81,914.35L181.79,913.08L195.78,901.07L209.76,895.16L223.74,897.34L265.7,889.67L279.68,882.58L293.66,902.2L307.65,911.95L321.63,907.02L363.58,905.67L377.57,897.26L391.55,885.77L405.54,883.71L419.52,859.08L461.47,826.68L475.46,799.14L489.44,779.93L503.42,878.11L517.41,889.04L559.36,927.88L587.33,917.03L601.31,913.72L657.25,897.42L671.23,896.6L685.22,902.28L699.2,898.9L713.18,907.25L755.14,904.51L769.12,909.81L783.1,901.49L797.09,894.33L811.07,892.01L853.02,877.36L867.01,854.22L880.99,854.42L894.98,838.63L908.96,799.31L950.91,829.58L964.9,910.95L978.88,920.42L992.86,914.7L1006.85,912.89L1048.8,912.69L1062.78,908.53L1076.77,900.79L1090.75,897.24L1146.69,900.28L1160.67,899.36L1174.66,902.72L1188.64,902.8L1202.62,903.09L1244.58,898.59L1258.56,893.69L1272.54,886.62L1286.53,862.53L1300.51,833.33L1342.46,746.71L1356.45,823.75L1370.43,873.51L1384.42,908.01L1398.4,922.9L1440.35,922.56L1454.34,915.73L1468.32,911.12L1482.3,908.82L1496.29,904.86L1538.24,904.05L1552.22,906.01L1594.18,901.38L1636.13,901.54L1650.11,901.76L1664.1,892.89L1678.08,885.54L1692.06,874.03L1734.02,853.94L1748,818.19" style="vector-effect: none; fill: none; stroke: rgb(213, 94, 0); stroke-opacity: 1; stroke-width: 6px; opacity: 1;"/></g><g class="points"/><g class="text"/></g><g class="trace scatter trace0229da" style="stroke-miterlimit: 2; opacity: 1;"><g class="fills"/><g class="errorbars"/><g class="lines"><path class="js-line" d="M0,874.79L13.98,828.64L27.97,893.58L69.92,887.57L83.9,795.62L97.89,894.68L111.87,927.7L125.86,858.12L167.81,893.52L181.79,847.62L195.78,899.39L209.76,917.41L223.74,876.38L265.7,734.59L279.68,861.23L293.66,847.76L307.65,687.47L321.63,853.26L363.58,746.44L377.57,854.16L391.55,827.86L405.54,883.07L419.52,896.96L461.47,934.13L475.46,927.56L489.44,943.05L503.42,921.24L517.41,904.38L559.36,858.8L573.34,927.24L587.33,911.09L601.31,902.41L615.3,891.69L657.25,897.52L671.23,910.17L685.22,862.7L699.2,895.34L713.18,875.48L755.14,835.24L769.12,846.05L783.1,859.36L797.09,845.61L811.07,859.58L853.02,832.06L867.01,827.06L880.99,646.13L894.98,767.52L908.96,738.02L950.91,876.36L964.9,893.9L978.88,898.33L992.86,905.26L1006.85,909.17L1048.8,915.62L1062.78,898.08L1076.77,832.69L1090.75,889.39L1104.74,900.25L1146.69,876.11L1160.67,900.89L1174.66,898.49L1188.64,896.9L1202.62,892.19L1244.58,905.4L1258.56,831.51L1272.54,837.8L1286.53,718.2L1300.51,728.92L1342.46,952.2L1356.45,902.27L1370.43,911.54L1384.42,900.41L1398.4,904.99L1440.35,845.36L1454.34,882.55L1468.32,898.97L1482.3,865.78L1496.29,889.48L1538.24,889.16L1552.22,910.56L1566.21,903.61L1580.19,840.25L1594.18,901.04L1636.13,886.71L1650.11,877.69L1664.1,864.61L1678.08,753.74L1692.06,848.85L1734.02,841.67L1748,799.33" style="vector-effect: none; fill: none; stroke: rgb(0, 114, 178); stroke-opacity: 1; stroke-dasharray: 18px, 18px; stroke-width: 6px; opacity: 1;"/></g><g class="points"/><g class="text"/></g><g class="trace scatter trace99f2cc" style="stroke-miterlimit: 2; opacity: 1;"><g class="fills"/><g class="errorbars"/><g class="lines"><path class="js-line" d="M0,849.47L13.98,743.23L27.97,385.73L69.92,895.04L83.9,914.97L97.89,911.3L111.87,867.26L125.86,916.27L167.81,866L181.79,907.57L195.78,905.45L223.74,804L265.7,867.12L279.68,839.03L293.66,749.1L307.65,854.73L321.63,826.71L363.58,774.31L377.57,723.07L391.55,945.96L405.54,970L419.52,724.31L461.47,709.28L475.46,586.18L489.44,950.87L503.42,970L517.41,839.37L559.36,892.07L573.34,904.48L587.33,898.49L601.31,901.02L615.3,910.24L657.25,879.24L671.23,910.34L685.22,905.85L699.2,881.91L713.18,843.76L755.14,891.13L769.12,896.53L783.1,890.75L797.09,897.12L811.07,843.98L853.02,847.02L867.01,709.02L880.99,816.5L894.98,765.01L908.96,253.95L950.91,907.44L964.9,905.52L978.88,920.39L992.86,924.59L1048.8,910.17L1062.78,836.01L1076.77,906.48L1090.75,913.42L1104.74,893.36L1146.69,970L1160.67,970L1174.66,901.13L1188.64,906.09L1202.62,917.52L1244.58,855.16L1258.56,852.22L1272.54,802.1L1286.53,785.24L1300.51,302.38L1342.46,925.85L1356.45,914.77L1370.43,915.1L1384.42,926.94L1398.4,866.69L1440.35,903.18L1454.34,899.35L1468.32,879.42L1482.3,905.92L1496.29,912.37L1538.24,914.57L1552.22,923.8L1566.21,857.53L1580.19,927.24L1594.18,896.71L1636.13,883.34L1650.11,894.98L1664.1,708.68L1678.08,892.37L1692.06,865.26L1734.02,793.59L1748,367.99" style="vector-effect: none; fill: none; stroke: rgb(17, 17, 17); stroke-opacity: 1; stroke-width: 9px; opacity: 1;"/></g><g class="points"/><g class="text"/></g></g></g></g><g class="zerolinelayer-above"/><path class="xlines-above crisp" d="M278.4,1240.8H2028" style="fill: none; stroke-width: 1.6px; stroke: rgb(34, 34, 34); stroke-opacity: 1;"/><path class="ylines-above crisp" d="M279.2,270V1240" style="fill: none; stroke-width: 1.6px; stroke: rgb(34, 34, 34); stroke-opacity: 1;"/><g class="overlines-above"/><g class="xaxislayer-above"><path class="xtick ticks crisp" d="M0,1241.6v5" transform="translate(349.92,0)" style="stroke: rgb(34, 34, 34); stroke-opacity: 1; stroke-width: 1px;"/><path class="xtick ticks crisp" d="M0,1241.6v5" transform="translate(783.4200000000001,0)" style="stroke: rgb(34, 34, 34); stroke-opacity: 1; stroke-width: 1px;"/><path class="xtick ticks crisp" d="M0,1241.6v5" transform="translate(1216.9299999999998,0)" style="stroke: rgb(34, 34, 34); stroke-opacity: 1; stroke-width: 1px;"/><path class="xtick ticks crisp" d="M0,1241.6v5" transform="translate(1608.48,0)" style="stroke: rgb(34, 34, 34); stroke-opacity: 1; stroke-width: 1px;"/><g class="xtick"><text text-anchor="middle" x="0" y="1297" transform="translate(349.92,0)" style="font-family: 'Liberation Sans', Arial, Helvetica, sans-serif; font-size: 42px; fill: rgb(34, 34, 34); fill-opacity: 1; white-space: pre;">01 Dec</text></g><g class="xtick"><text text-anchor="middle" x="0" y="1297" style="font-family: 'Liberation Sans', Arial, Helvetica, sans-serif; font-size: 42px; fill: rgb(34, 34, 34); fill-opacity: 1; white-space: pre;" transform="translate(783.4200000000001,0)">01 Jan</text></g><g class="xtick"><text text-anchor="middle" x="0" y="1297" style="font-family: 'Liberation Sans', Arial, Helvetica, sans-serif; font-size: 42px; fill: rgb(34, 34, 34); fill-opacity: 1; white-space: pre;" transform="translate(1216.9299999999998,0)">01 Feb</text></g><g class="xtick"><text text-anchor="middle" x="0" y="1297" style="font-family: 'Liberation Sans', Arial, Helvetica, sans-serif; font-size: 42px; fill: rgb(34, 34, 34); fill-opacity: 1; white-space: pre;" transform="translate(1608.48,0)">01 Mar</text></g></g><g class="yaxislayer-above"><path class="ytick ticks crisp" d="M278.4,0h-5" transform="translate(0,1240)" style="stroke: rgb(34, 34, 34); stroke-opacity: 1; stroke-width: 1px;"/><path class="ytick ticks crisp" d="M278.4,0h-5" transform="translate(0,1046)" style="stroke: rgb(34, 34, 34); stroke-opacity: 1; stroke-width: 1px;"/><path class="ytick ticks crisp" d="M278.4,0h-5" transform="translate(0,852)" style="stroke: rgb(34, 34, 34); stroke-opacity: 1; stroke-width: 1px;"/><path class="ytick ticks crisp" d="M278.4,0h-5" transform="translate(0,658)" style="stroke: rgb(34, 34, 34); stroke-opacity: 1; stroke-width: 1px;"/><path class="ytick ticks crisp" d="M278.4,0h-5" transform="translate(0,464)" style="stroke: rgb(34, 34, 34); stroke-opacity: 1; stroke-width: 1px;"/><path class="ytick ticks crisp" d="M278.4,0h-5" transform="translate(0,270)" style="stroke: rgb(34, 34, 34); stroke-opacity: 1; stroke-width: 1px;"/><g class="ytick"><text text-anchor="end" x="265" y="14.7" transform="translate(0,1240)" style="font-family: 'Liberation Sans', Arial, Helvetica, sans-serif; font-size: 42px; fill: rgb(34, 34, 34); fill-opacity: 1; white-space: pre;">0</text></g><g class="ytick"><text text-anchor="end" x="265" y="14.7" style="font-family: 'Liberation Sans', Arial, Helvetica, sans-serif; font-size: 42px; fill: rgb(34, 34, 34); fill-opacity: 1; white-space: pre;" transform="translate(0,1046)">50</text></g><g class="ytick"><text text-anchor="end" x="265" y="14.7" style="font-family: 'Liberation Sans', Arial, Helvetica, sans-serif; font-size: 42px; fill: rgb(34, 34, 34); fill-opacity: 1; white-space: pre;" transform="translate(0,852)">100</text></g><g class="ytick"><text text-anchor="end" x="265" y="14.7" style="font-family: 'Liberation Sans', Arial, Helvetica, sans-serif; font-size: 42px; fill: rgb(34, 34, 34); fill-opacity: 1; white-space: pre;" transform="translate(0,658)">150</text></g><g class="ytick"><text text-anchor="end" x="265" y="14.7" style="font-family: 'Liberation Sans', Arial, Helvetica, sans-serif; font-size: 42px; fill: rgb(34, 34, 34); fill-opacity: 1; white-space: pre;" transform="translate(0,464)">200</text></g><g class="ytick"><text text-anchor="end" x="265" y="14.7" style="font-family: 'Liberation Sans', Arial, Helvetica, sans-serif; font-size: 42px; fill: rgb(34, 34, 34); fill-opacity: 1; white-space: pre;" transform="translate(0,270)">250</text></g></g><g class="overaxes-above"/></g></g><g class="polarlayer"/><g class="smithlayer"/><g class="ternarylayer"/><g class="geolayer"/><g class="funnelarealayer"/><g class="pielayer"/><g class="iciclelayer"/><g class="treemaplayer"/><g class="sunburstlayer"/><g class="glimages"/><defs id="topdefs-e946b0"><g class="clips"/><clipPath id="legende946b0"><rect width="703" height="68" x="0" y="0"/></clipPath></defs><g class="layer-above"><g class="imagelayer"/><g class="shapelayer"/></g><g class="infolayer"><g class="legend" pointer-events="all" transform="translate(698.5,1450)"><rect class="bg" shape-rendering="crispEdges" style="stroke: rgb(68, 68, 68); stroke-opacity: 1; fill: rgb(255, 255, 255); fill-opacity: 0; stroke-width: 0px;" width="703" height="68" x="0" y="0"/><g class="scrollbox" transform="" clip-path="url(#legende946b0)"><g class="groups"><g class="traces" transform="translate(0,33.8)" style="opacity: 1;"><text class="legendtext" text-anchor="start" x="40" y="16.38" style="font-family: 'Liberation Sans', Arial, Helvetica, sans-serif; font-size: 42px; fill: rgb(34, 34, 34); fill-opacity: 1; white-space: pre;">Actual</text><g class="layers" style="opacity: 1;"><g class="legendfill"/><g class="legendlines"><path class="js-line" d="M5,0h30" style="fill: none; stroke: rgb(17, 17, 17); stroke-opacity: 1; stroke-width: 5px;"/></g><g class="legendsymbols"><g class="legendpoints"/></g></g><rect class="legendtoggle" x="0" y="-28.8" width="159.234375" height="57.6" style="fill: rgb(0, 0, 0); fill-opacity: 0;"/></g><g class="traces" transform="translate(161.734375,33.8)" style="opacity: 1;"><text class="legendtext" text-anchor="start" x="40" y="16.38" style="font-family: 'Liberation Sans', Arial, Helvetica, sans-serif; font-size: 42px; fill: rgb(34, 34, 34); fill-opacity: 1; white-space: pre;">M9_TimesFM3</text><g class="layers" style="opacity: 1;"><g class="legendfill"/><g class="legendlines"><path class="js-line" d="M5,0h30" style="fill: none; stroke: rgb(213, 94, 0); stroke-opacity: 1; stroke-width: 5px;"/></g><g class="legendsymbols"><g class="legendpoints"/></g></g><rect class="legendtoggle" x="0" y="-28.8" width="320.984375" height="57.6" style="fill: rgb(0, 0, 0); fill-opacity: 0;"/></g><g class="traces" transform="translate(485.21875,33.8)" style="opacity: 1;"><text class="legendtext" text-anchor="start" x="40" y="16.38" style="font-family: 'Liberation Sans', Arial, Helvetica, sans-serif; font-size: 42px; fill: rgb(34, 34, 34); fill-opacity: 1; white-space: pre;">M3_HGB</text><g class="layers" style="opacity: 1;"><g class="legendfill"/><g class="legendlines"><path class="js-line" d="M5,0h30" style="fill: none; stroke: rgb(0, 114, 178); stroke-opacity: 1; stroke-dasharray: 15px, 15px; stroke-width: 5px;"/></g><g class="legendsymbols"><g class="legendpoints"/></g></g><rect class="legendtoggle" x="0" y="-28.8" width="215.21875" height="57.6" style="fill: rgb(0, 0, 0); fill-opacity: 0;"/></g></g></g><rect class="scrollbar" rx="20" ry="3" width="0" height="0" style="fill: rgb(128, 139, 164); fill-opacity: 1;" x="0" y="0"/></g><g class="g-gtitle"><text class="gtitle" x="1050" y="96" text-anchor="middle" dy="0.7em" style="opacity: 1; font-family: 'Liberation Sans', Arial, Helvetica, sans-serif; font-size: 58px; fill: rgb(34, 34, 34); fill-opacity: 1; white-space: pre;"><tspan class="line" dy="0em" x="1050" y="96">Grain B (business days)</tspan><tspan class="line" dy="1.3em" x="1050" y="96"><tspan style="font-size:42px; fill:#444444">Black line: realized collection. Other lines: lowest test sMAPE.</tspan></tspan></text></g><g class="g-xtitle"><text class="xtitle" x="1154" y="1366.8" text-anchor="middle" style="opacity: 1; font-family: 'Liberation Sans', Arial, Helvetica, sans-serif; font-size: 48px; fill: rgb(34, 34, 34); fill-opacity: 1; white-space: pre;">Date</text></g><g class="g-ytitle"><text class="ytitle" transform="rotate(-90,150.921875,755)" x="150.921875" y="755" text-anchor="middle" style="opacity: 1; font-family: 'Liberation Sans', Arial, Helvetica, sans-serif; font-size: 48px; fill: rgb(34, 34, 34); fill-opacity: 1; white-space: pre;">BRL (millions)</text></g></g></svg>